<mxfile host="Electron" modified="2023-06-25T09:46:05.921Z" agent="Mozilla/5.0 (Windows NT 10.0; Win64; x64) AppleWebKit/537.36 (KHTML, like Gecko) draw.io/21.2.1 Chrome/112.0.5615.87 Electron/24.1.2 Safari/537.36" etag="ep5Kvyt-58KjTylDw5kR" version="21.2.1" type="device">
  <diagram name="第 1 页" id="Ddp_4GvIFCaKqRczuAh4">
    <mxGraphModel dx="1098" dy="820" grid="1" gridSize="10" guides="1" tooltips="1" connect="1" arrows="1" fold="1" page="1" pageScale="1" pageWidth="827" pageHeight="1169" math="0" shadow="0">
      <root>
        <mxCell id="0" />
        <mxCell id="1" parent="0" />
        <mxCell id="lxFPnvU3_qxI2LDUMw3F-1" value="" style="fillColor=#DEE8FF;strokeColor=none;" vertex="1" parent="1">
          <mxGeometry x="160" y="190" width="570" height="480" as="geometry" />
        </mxCell>
        <mxCell id="lxFPnvU3_qxI2LDUMw3F-2" value="&lt;font style=&quot;font-size: 36px;&quot;&gt;DocKey&lt;/font&gt;" style="rounded=0;whiteSpace=wrap;html=1;fillColor=#d5e8d4;strokeColor=#000000;" vertex="1" parent="1">
          <mxGeometry x="214" y="240" width="256" height="60" as="geometry" />
        </mxCell>
        <mxCell id="lxFPnvU3_qxI2LDUMw3F-3" value="&lt;font style=&quot;font-size: 15px;&quot;&gt;16-bit&lt;br&gt;Hash&lt;/font&gt;" style="rounded=0;whiteSpace=wrap;html=1;fillColor=#d5e8d4;strokeColor=#000000;" vertex="1" parent="1">
          <mxGeometry x="214" y="320" width="76" height="60" as="geometry" />
        </mxCell>
        <mxCell id="lxFPnvU3_qxI2LDUMw3F-4" value="&lt;font style=&quot;font-size: 15px;&quot;&gt;Hash&lt;br&gt;columns&lt;/font&gt;" style="rounded=0;whiteSpace=wrap;html=1;fillColor=#d5e8d4;strokeColor=#000000;" vertex="1" parent="1">
          <mxGeometry x="299" y="320" width="86" height="60" as="geometry" />
        </mxCell>
        <mxCell id="lxFPnvU3_qxI2LDUMw3F-5" value="&lt;font style=&quot;font-size: 15px;&quot;&gt;Range&lt;br&gt;columns&lt;/font&gt;" style="rounded=0;whiteSpace=wrap;html=1;fillColor=#d5e8d4;strokeColor=#000000;" vertex="1" parent="1">
          <mxGeometry x="394" y="320" width="76" height="60" as="geometry" />
        </mxCell>
      </root>
    </mxGraphModel>
  </diagram>
</mxfile>
